<svg width="147" height="50" viewBox="0 0 147 50" fill="none" xmlns="http://www.w3.org/2000/svg">
<path d="M57.1477 22H61.858C64.5227 22 65.8295 20.642 65.8295 18.8295C65.8295 17.0682 64.5795 16.0341 63.3409 15.9716V15.858C64.4773 15.5909 65.375 14.7955 65.375 13.3807C65.375 11.6477 64.125 10.3636 61.6023 10.3636H57.1477V22ZM59.2557 20.2386V16.8295H61.5795C62.8807 16.8295 63.6875 17.625 63.6875 18.6648C63.6875 19.5909 63.0511 20.2386 61.5227 20.2386H59.2557ZM59.2557 15.3125V12.1023H61.3864C62.625 12.1023 63.267 12.7557 63.267 13.6534C63.267 14.6761 62.4375 15.3125 61.3409 15.3125H59.2557ZM73.1349 18.3295C73.1349 19.6591 72.1861 20.3182 71.277 20.3182C70.2884 20.3182 69.6293 19.6193 69.6293 18.5114V13.2727H67.5724V18.8295C67.5724 20.9261 68.7656 22.1136 70.4815 22.1136C71.7884 22.1136 72.7088 21.4261 73.1065 20.4489H73.1974V22H75.1918V13.2727H73.1349V18.3295ZM84.2045 15.5795C83.9205 14.1023 82.7386 13.1591 80.6932 13.1591C78.5909 13.1591 77.1591 14.1932 77.1648 15.8068C77.1591 17.0795 77.9432 17.9205 79.6193 18.267L81.108 18.5795C81.9091 18.7557 82.2841 19.0795 82.2841 19.5739C82.2841 20.1705 81.6364 20.6193 80.6591 20.6193C79.7159 20.6193 79.1023 20.2102 78.9261 19.4261L76.9205 19.6193C77.1761 21.2216 78.5227 22.1705 80.6648 22.1705C82.8466 22.1705 84.3864 21.0398 84.392 19.3864C84.3864 18.142 83.5852 17.3807 81.9375 17.0227L80.4489 16.7045C79.5625 16.5057 79.2102 16.1989 79.2159 15.6932C79.2102 15.1023 79.8636 14.6932 80.7216 14.6932C81.6705 14.6932 82.1705 15.2102 82.3295 15.7841L84.2045 15.5795ZM86.0881 22H88.1449V13.2727H86.0881V22ZM87.1222 12.0341C87.7756 12.0341 88.3097 11.5341 88.3097 10.9205C88.3097 10.3011 87.7756 9.80114 87.1222 9.80114C86.4631 9.80114 85.929 10.3011 85.929 10.9205C85.929 11.5341 86.4631 12.0341 87.1222 12.0341ZM92.3168 16.8864C92.3168 15.625 93.0781 14.8977 94.1634 14.8977C95.2259 14.8977 95.8622 15.5966 95.8622 16.7614V22H97.919V16.4432C97.9247 14.3523 96.7315 13.1591 94.9304 13.1591C93.6236 13.1591 92.7259 13.7841 92.3281 14.7557H92.2259V13.2727H90.2599V22H92.3168V16.8864ZM103.874 22.1705C105.908 22.1705 107.305 21.1761 107.669 19.6591L105.749 19.4432C105.47 20.1818 104.788 20.5682 103.902 20.5682C102.572 20.5682 101.692 19.6932 101.675 18.1989H107.754V17.5682C107.754 14.5057 105.913 13.1591 103.766 13.1591C101.266 13.1591 99.6349 14.9943 99.6349 17.6875C99.6349 20.4261 101.243 22.1705 103.874 22.1705ZM101.68 16.8125C101.743 15.6989 102.567 14.7614 103.794 14.7614C104.976 14.7614 105.771 15.625 105.783 16.8125H101.68ZM116.392 15.5795C116.108 14.1023 114.926 13.1591 112.881 13.1591C110.778 13.1591 109.347 14.1932 109.352 15.8068C109.347 17.0795 110.131 17.9205 111.807 18.267L113.295 18.5795C114.097 18.7557 114.472 19.0795 114.472 19.5739C114.472 20.1705 113.824 20.6193 112.847 20.6193C111.903 20.6193 111.29 20.2102 111.114 19.4261L109.108 19.6193C109.364 21.2216 110.71 22.1705 112.852 22.1705C115.034 22.1705 116.574 21.0398 116.58 19.3864C116.574 18.142 115.773 17.3807 114.125 17.0227L112.636 16.7045C111.75 16.5057 111.398 16.1989 111.403 15.6932C111.398 15.1023 112.051 14.6932 112.909 14.6932C113.858 14.6932 114.358 15.2102 114.517 15.7841L116.392 15.5795ZM125.173 15.5795C124.889 14.1023 123.707 13.1591 121.662 13.1591C119.56 13.1591 118.128 14.1932 118.134 15.8068C118.128 17.0795 118.912 17.9205 120.588 18.267L122.077 18.5795C122.878 18.7557 123.253 19.0795 123.253 19.5739C123.253 20.1705 122.605 20.6193 121.628 20.6193C120.685 20.6193 120.071 20.2102 119.895 19.4261L117.889 19.6193C118.145 21.2216 119.491 22.1705 121.634 22.1705C123.815 22.1705 125.355 21.0398 125.361 19.3864C125.355 18.142 124.554 17.3807 122.906 17.0227L121.418 16.7045C120.531 16.5057 120.179 16.1989 120.185 15.6932C120.179 15.1023 120.832 14.6932 121.69 14.6932C122.639 14.6932 123.139 15.2102 123.298 15.7841L125.173 15.5795ZM58.642 40L59.6023 37.1307H63.9773L64.9432 40H67.1932L63.0909 28.3636H60.4886L56.392 40H58.642ZM60.1705 35.4375L61.7443 30.75H61.8352L63.4091 35.4375H60.1705ZM72.1761 40.1705C74.3693 40.1705 75.767 38.8693 75.9148 37.017H73.9489C73.7727 37.9545 73.0966 38.4943 72.1932 38.4943C70.9091 38.4943 70.0795 37.4205 70.0795 35.6364C70.0795 33.875 70.9261 32.8182 72.1932 32.8182C73.1818 32.8182 73.7898 33.4545 73.9489 34.2955H75.9148C75.7727 32.4034 74.2955 31.1591 72.1648 31.1591C69.608 31.1591 67.9943 33.0057 67.9943 35.6705C67.9943 38.3125 69.5682 40.1705 72.1761 40.1705ZM81.4105 40.1705C83.6037 40.1705 85.0014 38.8693 85.1491 37.017H83.1832C83.0071 37.9545 82.331 38.4943 81.4276 38.4943C80.1435 38.4943 79.3139 37.4205 79.3139 35.6364C79.3139 33.875 80.1605 32.8182 81.4276 32.8182C82.4162 32.8182 83.0241 33.4545 83.1832 34.2955H85.1491C85.0071 32.4034 83.5298 31.1591 81.3991 31.1591C78.8423 31.1591 77.2287 33.0057 77.2287 35.6705C77.2287 38.3125 78.8026 40.1705 81.4105 40.1705ZM90.7017 40.1705C92.7358 40.1705 94.1335 39.1761 94.4972 37.6591L92.5767 37.4432C92.2983 38.1818 91.6165 38.5682 90.7301 38.5682C89.4006 38.5682 88.5199 37.6932 88.5028 36.1989H94.5824V35.5682C94.5824 32.5057 92.7415 31.1591 90.5938 31.1591C88.0938 31.1591 86.4631 32.9943 86.4631 35.6875C86.4631 38.4261 88.071 40.1705 90.7017 40.1705ZM88.5085 34.8125C88.571 33.6989 89.3949 32.7614 90.6222 32.7614C91.804 32.7614 92.5994 33.625 92.6108 34.8125H88.5085ZM98.3793 28.3636H96.3224V40H98.3793V28.3636ZM104.358 40.1705C106.392 40.1705 107.79 39.1761 108.153 37.6591L106.233 37.4432C105.955 38.1818 105.273 38.5682 104.386 38.5682C103.057 38.5682 102.176 37.6932 102.159 36.1989H108.239V35.5682C108.239 32.5057 106.398 31.1591 104.25 31.1591C101.75 31.1591 100.119 32.9943 100.119 35.6875C100.119 38.4261 101.727 40.1705 104.358 40.1705ZM102.165 34.8125C102.227 33.6989 103.051 32.7614 104.278 32.7614C105.46 32.7614 106.256 33.625 106.267 34.8125H102.165ZM109.979 40H112.036V34.8693C112.036 33.7614 112.871 32.9773 114.001 32.9773C114.348 32.9773 114.78 33.0398 114.956 33.0966V31.2045C114.768 31.1705 114.445 31.1477 114.217 31.1477C113.217 31.1477 112.382 31.7159 112.064 32.7273H111.973V31.2727H109.979V40ZM118.662 40.1761C120.031 40.1761 120.849 39.5341 121.224 38.8011H121.293V40H123.27V34.1591C123.27 31.8523 121.389 31.1591 119.724 31.1591C117.889 31.1591 116.48 31.9773 116.026 33.5682L117.946 33.8409C118.151 33.2443 118.73 32.733 119.736 32.733C120.69 32.733 121.213 33.2216 121.213 34.0795V34.1136C121.213 34.7045 120.594 34.733 119.054 34.8977C117.361 35.0795 115.741 35.5852 115.741 37.5511C115.741 39.267 116.997 40.1761 118.662 40.1761ZM119.196 38.6648C118.338 38.6648 117.724 38.2727 117.724 37.517C117.724 36.7273 118.412 36.3977 119.332 36.267C119.872 36.1932 120.952 36.0568 121.219 35.8409V36.8693C121.219 37.8409 120.435 38.6648 119.196 38.6648ZM129.696 31.2727H127.974V29.1818H125.918V31.2727H124.679V32.8636H125.918V37.7159C125.906 39.358 127.099 40.1648 128.645 40.1193C129.23 40.1023 129.634 39.9886 129.855 39.9148L129.509 38.3068C129.395 38.3352 129.162 38.3864 128.906 38.3864C128.389 38.3864 127.974 38.2045 127.974 37.375V32.8636H129.696V31.2727ZM135.129 40.1705C137.686 40.1705 139.311 38.3693 139.311 35.6705C139.311 32.9659 137.686 31.1591 135.129 31.1591C132.572 31.1591 130.947 32.9659 130.947 35.6705C130.947 38.3693 132.572 40.1705 135.129 40.1705ZM135.141 38.5227C133.726 38.5227 133.033 37.2614 133.033 35.6648C133.033 34.0682 133.726 32.7898 135.141 32.7898C136.533 32.7898 137.226 34.0682 137.226 35.6648C137.226 37.2614 136.533 38.5227 135.141 38.5227ZM141.057 40H143.114V34.8693C143.114 33.7614 143.949 32.9773 145.08 32.9773C145.426 32.9773 145.858 33.0398 146.034 33.0966V31.2045C145.847 31.1705 145.523 31.1477 145.295 31.1477C144.295 31.1477 143.46 31.7159 143.142 32.7273H143.051V31.2727H141.057V40Z" fill="#0F2546"/>
<path d="M24 0.577351C24.6188 0.220085 25.3812 0.220085 26 0.57735L45.6506 11.9226C46.2694 12.2799 46.6506 12.9402 46.6506 13.6547V36.3453C46.6506 37.0598 46.2694 37.7201 45.6506 38.0774L26 49.4226C25.3812 49.7799 24.6188 49.7799 24 49.4226L4.34937 38.0774C3.73056 37.7201 3.34937 37.0598 3.34937 36.3453V13.6547C3.34937 12.9402 3.73056 12.2799 4.34937 11.9226L24 0.577351Z" fill="#0F2546"/>
<path d="M24.25 4.01036C24.7141 3.74241 25.2859 3.74241 25.75 4.01036L42.8026 13.8557C43.2667 14.1236 43.5526 14.6188 43.5526 15.1547V34.8453C43.5526 35.3812 43.2667 35.8764 42.8026 36.1443L25.75 45.9896C25.2859 46.2576 24.7141 46.2576 24.25 45.9896L7.19744 36.1443C6.73334 35.8764 6.44744 35.3812 6.44744 34.8453V15.1547C6.44744 14.6188 6.73334 14.1236 7.19744 13.8557L24.25 4.01036Z" stroke="#BBF613"/>
<path d="M18 36.6857V14.3664H19.8485V18.4578L19.5455 17.8776C20.1515 16.697 21.0202 15.7607 22.1515 15.0686C23.303 14.3562 24.6061 14 26.0606 14C27.5758 14 28.9293 14.3664 30.1212 15.0992C31.3333 15.832 32.2828 16.8395 32.9697 18.1219C33.6566 19.4043 34 20.8495 34 22.4575C34 24.0656 33.6566 25.5108 32.9697 26.7932C32.2828 28.0755 31.3333 29.0933 30.1212 29.8464C28.9293 30.5792 27.5758 30.9456 26.0606 30.9456C24.6061 30.9456 23.2929 30.5894 22.1212 29.877C20.9697 29.1442 20.1111 28.157 19.5455 26.9153L19.8485 26.4878V36.6857H18ZM26 29.1136C27.1717 29.1136 28.2121 28.8287 29.1212 28.2587C30.0303 27.6684 30.7475 26.8746 31.2727 25.8772C31.798 24.8594 32.0606 23.7195 32.0606 22.4575C32.0606 21.1955 31.798 20.0658 31.2727 19.0684C30.7475 18.071 30.0303 17.2873 29.1212 16.7174C28.2121 16.1271 27.1717 15.832 26 15.832C24.8687 15.832 23.8384 16.1271 22.9091 16.7174C21.9798 17.2873 21.2424 18.071 20.697 19.0684C20.1515 20.0658 19.8788 21.2057 19.8788 22.4881C19.8788 23.7297 20.1515 24.8594 20.697 25.8772C21.2424 26.8746 21.9798 27.6684 22.9091 28.2587C23.8384 28.8287 24.8687 29.1136 26 29.1136Z" fill="#BBF613"/>
</svg>
