<svg width="20" height="20" viewBox="0 0 20 20" fill="none" xmlns="http://www.w3.org/2000/svg">
<path fill-rule="evenodd" clip-rule="evenodd" d="M14.1673 5.83268C13.7071 5.83268 13.334 5.45959 13.334 4.99935C13.334 4.53911 13.7071 4.16602 14.1673 4.16602H18.334C18.7942 4.16602 19.1673 4.53911 19.1673 4.99935V9.16602C19.1673 9.62625 18.7942 9.99935 18.334 9.99935C17.8737 9.99935 17.5006 9.62625 17.5006 9.16602V7.01119L11.4232 13.0886C11.0978 13.414 10.5702 13.414 10.2447 13.0886L7.50065 10.3445L2.25657 15.5886C1.93114 15.914 1.4035 15.914 1.07806 15.5886C0.752625 15.2632 0.752625 14.7355 1.07806 14.4101L6.9114 8.57676C7.23683 8.25132 7.76447 8.25132 8.08991 8.57676L10.834 11.3208L16.3221 5.83268H14.1673Z" fill="white"/>
</svg>
