<svg width="18" height="18" viewBox="0 0 18 18" fill="none" xmlns="http://www.w3.org/2000/svg">
<path fill-rule="evenodd" clip-rule="evenodd" d="M15.7499 5.25C15.7499 7.73528 13.7351 9.75 11.2499 9.75C8.76458 9.75 6.74986 7.73528 6.74986 5.25C6.74986 2.76472 8.76458 0.75 11.2499 0.75C13.7351 0.75 15.7499 2.76472 15.7499 5.25ZM14.2499 5.25C14.2499 6.90685 12.9067 8.25 11.2499 8.25C9.59301 8.25 8.24986 6.90685 8.24986 5.25C8.24986 3.59315 9.59301 2.25 11.2499 2.25C12.9067 2.25 14.2499 3.59315 14.2499 5.25Z" fill="white"/>
<path d="M6.14906 2.30986C6.555 2.22746 6.81727 1.83159 6.73487 1.42565C6.65247 1.01972 6.2566 0.757444 5.85066 0.839844C3.79633 1.25685 2.24986 3.07191 2.24986 5.24984C2.24986 7.42777 3.79633 9.24283 5.85066 9.65984C6.2566 9.74224 6.65247 9.47996 6.73487 9.07403C6.81727 8.66809 6.555 8.27222 6.14906 8.18982C4.78003 7.91192 3.74986 6.70034 3.74986 5.24984C3.74986 3.79934 4.78003 2.58776 6.14906 2.30986Z" fill="white"/>
<path fill-rule="evenodd" clip-rule="evenodd" d="M7.27329 11.6802C8.19793 10.9704 9.48666 10.5 11.2499 10.5C13.0131 10.5 14.3019 10.9704 15.2265 11.6802C16.1442 12.3846 16.6435 13.2788 16.9142 14.0315C17.1526 14.694 16.9856 15.3425 16.586 15.8021C16.2 16.246 15.6157 16.5 14.9999 16.5H7.49989C6.88403 16.5 6.29971 16.246 5.91377 15.8021C5.51414 15.3425 5.34719 14.694 5.58551 14.0314C5.85628 13.2787 6.35556 12.3846 7.27329 11.6802ZM8.18664 12.87C7.55503 13.3548 7.1987 13.9784 6.99697 14.5392C6.95487 14.6562 6.97803 14.74 7.04572 14.8179C7.12709 14.9115 7.2873 15 7.49989 15H14.9999C15.2124 15 15.3726 14.9115 15.454 14.8179C15.5217 14.74 15.5449 14.6562 15.5028 14.5392C15.3011 13.9784 14.9447 13.3549 14.3131 12.87C13.6885 12.3905 12.7341 12 11.2499 12C9.7657 12 8.81134 12.3905 8.18664 12.87Z" fill="white"/>
<path d="M2.43806 14.4576C2.59159 13.8665 2.85509 13.2449 3.28996 12.7803C3.70328 12.3388 4.30525 12 5.24986 12C5.66408 12 5.99986 11.6642 5.99986 11.25C5.99986 10.8358 5.66408 10.5 5.24986 10.5C3.88436 10.5 2.88777 11.0151 2.19489 11.7552C1.52357 12.4724 1.17328 13.3603 0.98622 14.0806C0.62382 15.476 1.81073 16.5 2.99984 16.5H3.57676C3.99097 16.5 4.32676 16.1642 4.32676 15.75C4.32676 15.3358 3.99097 15 3.57676 15H2.99984C2.78794 15 2.6192 14.9129 2.52326 14.8069C2.43638 14.7109 2.40181 14.5972 2.43806 14.4576Z" fill="white"/>
</svg>
