<svg width="50" height="50" viewBox="0 0 50 50" fill="none" xmlns="http://www.w3.org/2000/svg">
<path d="M24 0.577351C24.6188 0.220085 25.3812 0.220085 26 0.57735L45.6506 11.9226C46.2694 12.2799 46.6506 12.9402 46.6506 13.6547V36.3453C46.6506 37.0598 46.2694 37.7201 45.6506 38.0774L26 49.4226C25.3812 49.7799 24.6188 49.7799 24 49.4226L4.34937 38.0774C3.73056 37.7201 3.34937 37.0598 3.34937 36.3453V13.6547C3.34937 12.9402 3.73056 12.2799 4.34937 11.9226L24 0.577351Z" fill="url(#paint0_linear_710_8912)"/>
<path d="M24.25 4.01036C24.7141 3.74241 25.2859 3.74241 25.75 4.01036L42.8026 13.8557C43.2667 14.1236 43.5526 14.6188 43.5526 15.1547V34.8453C43.5526 35.3812 43.2667 35.8764 42.8026 36.1443L25.75 45.9896C25.2859 46.2576 24.7141 46.2576 24.25 45.9896L7.19744 36.1443C6.73334 35.8764 6.44744 35.3812 6.44744 34.8453V15.1547C6.44744 14.6188 6.73334 14.1236 7.19744 13.8557L24.25 4.01036Z" stroke="white"/>
<path d="M18 34.85V15.3206H19.6174V18.9005L19.3523 18.3929C19.8826 17.3599 20.6427 16.5406 21.6326 15.9351C22.6402 15.3117 23.7803 15 25.053 15C26.3788 15 27.5631 15.3206 28.6061 15.9618C29.6667 16.603 30.4975 17.4846 31.0985 18.6067C31.6995 19.7287 32 20.9933 32 22.4003C32 23.8074 31.6995 25.0719 31.0985 26.194C30.4975 27.3161 29.6667 28.2066 28.6061 28.8656C27.5631 29.5068 26.3788 29.8274 25.053 29.8274C23.7803 29.8274 22.6313 29.5157 21.6061 28.8923C20.5985 28.2512 19.8472 27.3873 19.3523 26.3009L19.6174 25.9269V34.85H18ZM25 28.2244C26.0253 28.2244 26.9356 27.9751 27.7311 27.4764C28.5265 26.9599 29.154 26.2653 29.6136 25.3925C30.0732 24.502 30.303 23.5046 30.303 22.4003C30.303 21.2961 30.0732 20.3076 29.6136 19.4349C29.154 18.5621 28.5265 17.8764 27.7311 17.3777C26.9356 16.8612 26.0253 16.603 25 16.603C24.0101 16.603 23.1086 16.8612 22.2955 17.3777C21.4823 17.8764 20.8371 18.5621 20.3598 19.4349C19.8826 20.3076 19.6439 21.305 19.6439 22.4271C19.6439 23.5135 19.8826 24.502 20.3598 25.3925C20.8371 26.2653 21.4823 26.9599 22.2955 27.4764C23.1086 27.9751 24.0101 28.2244 25 28.2244Z" fill="white"/>
<defs>
<linearGradient id="paint0_linear_710_8912" x1="25" y1="0" x2="25" y2="50" gradientUnits="userSpaceOnUse">
<stop stop-color="#ABDF65"/>
<stop offset="1" stop-color="#28D094"/>
</linearGradient>
</defs>
</svg>
