<svg width="50" height="50" viewBox="0 0 50 50" fill="none" xmlns="http://www.w3.org/2000/svg">
<path d="M24 0.577351C24.6188 0.220085 25.3812 0.220085 26 0.57735L45.6506 11.9226C46.2694 12.2799 46.6506 12.9402 46.6506 13.6547V36.3453C46.6506 37.0598 46.2694 37.7201 45.6506 38.0774L26 49.4226C25.3812 49.7799 24.6188 49.7799 24 49.4226L4.34937 38.0774C3.73056 37.7201 3.34937 37.0598 3.34937 36.3453V13.6547C3.34937 12.9402 3.73056 12.2799 4.34937 11.9226L24 0.577351Z" fill="url(#paint0_linear_839_8684)"/>
<path d="M24.25 4.01036C24.7141 3.74241 25.2859 3.74241 25.75 4.01036L42.8026 13.8557C43.2667 14.1236 43.5526 14.6188 43.5526 15.1547V34.8453C43.5526 35.3812 43.2667 35.8764 42.8026 36.1443L25.75 45.9896C25.2859 46.2576 24.7141 46.2576 24.25 45.9896L7.19744 36.1443C6.73334 35.8764 6.44744 35.3812 6.44744 34.8453V15.1547C6.44744 14.6188 6.73334 14.1236 7.19744 13.8557L24.25 4.01036Z" stroke="white"/>
<path fill-rule="evenodd" clip-rule="evenodd" d="M31.795 18.205C31.9761 18.3862 32.0438 18.6518 31.9715 18.8975L28.4715 30.7975C28.3931 31.0641 28.1644 31.2591 27.8888 31.2943C27.6131 31.3296 27.3427 31.1984 27.1997 30.9601L25.561 28.2289L21.995 31.795C21.7216 32.0683 21.2784 32.0683 21.005 31.795L18.205 28.995C17.9317 28.7216 17.9317 28.2784 18.205 28.005L21.7711 24.439L19.0399 22.8003C18.8016 22.6573 18.6704 22.3869 18.7057 22.1112C18.7409 21.8356 18.9359 21.6069 19.2025 21.5285L31.1025 18.0285C31.3482 17.9562 31.6138 18.0239 31.795 18.205ZM21.1291 22.4211L23.2601 23.6998C23.445 23.8107 23.5684 24.0005 23.5947 24.2145C23.6211 24.4284 23.5474 24.6426 23.395 24.795L19.6899 28.5L21.5 30.3101L25.205 26.605C25.3574 26.4526 25.5716 26.3789 25.7855 26.4053C25.9995 26.4316 26.1893 26.555 26.3002 26.7399L27.5789 28.8709L30.2663 19.7337L21.1291 22.4211Z" fill="white"/>
<defs>
<linearGradient id="paint0_linear_839_8684" x1="25" y1="0" x2="25" y2="50" gradientUnits="userSpaceOnUse">
<stop stop-color="#9AECCD"/>
<stop offset="1" stop-color="#36C0DB"/>
</linearGradient>
</defs>
</svg>
