<svg width="50" height="50" viewBox="0 0 50 50" fill="none" xmlns="http://www.w3.org/2000/svg">
<path d="M24 0.577351C24.6188 0.220085 25.3812 0.220085 26 0.57735L45.6506 11.9226C46.2694 12.2799 46.6506 12.9402 46.6506 13.6547V36.3453C46.6506 37.0598 46.2694 37.7201 45.6506 38.0774L26 49.4226C25.3812 49.7799 24.6188 49.7799 24 49.4226L4.34937 38.0774C3.73056 37.7201 3.34937 37.0598 3.34937 36.3453V13.6547C3.34937 12.9402 3.73056 12.2799 4.34937 11.9226L24 0.577351Z" fill="url(#paint0_linear_710_9277)"/>
<path d="M24.25 4.01036C24.7141 3.74241 25.2859 3.74241 25.75 4.01036L42.8026 13.8557C43.2667 14.1236 43.5526 14.6188 43.5526 15.1547V34.8453C43.5526 35.3812 43.2667 35.8764 42.8026 36.1443L25.75 45.9896C25.2859 46.2576 24.7141 46.2576 24.25 45.9896L7.19744 36.1443C6.73334 35.8764 6.44744 35.3812 6.44744 34.8453V15.1547C6.44744 14.6188 6.73334 14.1236 7.19744 13.8557L24.25 4.01036Z" stroke="white"/>
<path d="M25 16C25.4142 16 25.75 16.3358 25.75 16.75C25.75 17.1642 25.4142 17.5 25 17.5C20.8579 17.5 17.5 20.8579 17.5 25C17.5 29.1421 20.8579 32.5 25 32.5C26.8915 32.5 28.6179 31.8007 29.9375 30.6456C30.2492 30.3728 30.723 30.4042 30.9958 30.7159C31.2687 31.0276 31.2372 31.5014 30.9255 31.7742C29.3429 33.1596 27.2687 34 25 34C20.0294 34 16 29.9706 16 25C16 20.0294 20.0294 16 25 16Z" fill="#F6F8FA"/>
<path d="M25.75 19.75C25.75 19.3358 25.4142 19 25 19C24.5858 19 24.25 19.3358 24.25 19.75V25C24.25 25.1989 24.329 25.3897 24.4697 25.5303L27.0947 28.1553C27.3875 28.4482 27.8624 28.4482 28.1553 28.1553C28.4482 27.8624 28.4482 27.3876 28.1553 27.0947L25.75 24.6893V19.75Z" fill="#F6F8FA"/>
<path d="M32.5264 28.4756C32.1677 28.2685 31.709 28.3914 31.5019 28.7501C31.2948 29.1089 31.4177 29.5676 31.7764 29.7747C32.1351 29.9818 32.5938 29.8589 32.8009 29.5001C33.008 29.1414 32.8851 28.6827 32.5264 28.4756Z" fill="#F6F8FA"/>
<path d="M32.3925 26.3022C32.4645 25.8943 32.8535 25.6219 33.2614 25.6938C33.6693 25.7657 33.9417 26.1547 33.8697 26.5627C33.7978 26.9706 33.4088 27.243 33.0009 27.171C32.593 27.0991 32.3206 26.7101 32.3925 26.3022Z" fill="#F6F8FA"/>
<path d="M33.0008 22.8287C32.5929 22.9006 32.3205 23.2896 32.3924 23.6975C32.4644 24.1054 32.8534 24.3778 33.2613 24.3059C33.6692 24.234 33.9416 23.845 33.8697 23.4371C33.7977 23.0291 33.4087 22.7568 33.0008 22.8287Z" fill="#F6F8FA"/>
<path d="M31.5015 21.2501C31.2944 20.8914 31.4173 20.4327 31.776 20.2256C32.1347 20.0185 32.5934 20.1414 32.8005 20.5001C33.0077 20.8589 32.8847 21.3176 32.526 21.5247C32.1673 21.7318 31.7086 21.6089 31.5015 21.2501Z" fill="#F6F8FA"/>
<path d="M29.7346 18.198C29.4683 18.5153 29.5097 18.9884 29.827 19.2546C30.1443 19.5209 30.6174 19.4795 30.8836 19.1622C31.1499 18.8449 31.1085 18.3718 30.7912 18.1056C30.4739 17.8393 30.0008 17.8807 29.7346 18.198Z" fill="#F6F8FA"/>
<path d="M27.5716 17.9525C27.1824 17.8108 26.9817 17.3804 27.1234 16.9912C27.2651 16.6019 27.6954 16.4013 28.0847 16.5429C28.4739 16.6846 28.6746 17.115 28.5329 17.5042C28.3913 17.8934 27.9609 18.0941 27.5716 17.9525Z" fill="#F6F8FA"/>
<defs>
<linearGradient id="paint0_linear_710_9277" x1="25" y1="0" x2="25" y2="50" gradientUnits="userSpaceOnUse">
<stop stop-color="#FF6565"/>
<stop offset="1" stop-color="#FC7651"/>
</linearGradient>
</defs>
</svg>
