<svg width="50" height="50" viewBox="0 0 50 50" fill="none" xmlns="http://www.w3.org/2000/svg">
<path d="M24 0.577351C24.6188 0.220085 25.3812 0.220085 26 0.57735L45.6506 11.9226C46.2694 12.2799 46.6506 12.9402 46.6506 13.6547V36.3453C46.6506 37.0598 46.2694 37.7201 45.6506 38.0774L26 49.4226C25.3812 49.7799 24.6188 49.7799 24 49.4226L4.34937 38.0774C3.73056 37.7201 3.34937 37.0598 3.34937 36.3453V13.6547C3.34937 12.9402 3.73056 12.2799 4.34937 11.9226L24 0.577351Z" fill="url(#paint0_linear_839_8685)"/>
<path d="M24.25 4.01036C24.7141 3.74241 25.2859 3.74241 25.75 4.01036L42.8026 13.8557C43.2667 14.1236 43.5526 14.6188 43.5526 15.1547V34.8453C43.5526 35.3812 43.2667 35.8764 42.8026 36.1443L25.75 45.9896C25.2859 46.2576 24.7141 46.2576 24.25 45.9896L7.19744 36.1443C6.73334 35.8764 6.44744 35.3812 6.44744 34.8453V15.1547C6.44744 14.6188 6.73334 14.1236 7.19744 13.8557L24.25 4.01036Z" stroke="white"/>
<path fill-rule="evenodd" clip-rule="evenodd" d="M29.3576 21.3577C29.3576 23.7643 27.4066 25.7153 25 25.7153C22.5933 25.7153 20.6423 23.7643 20.6423 21.3577C20.6423 18.951 22.5933 17 25 17C27.4066 17 29.3576 18.951 29.3576 21.3577ZM27.9051 21.3577C27.9051 22.9621 26.6044 24.2628 25 24.2628C23.3955 24.2628 22.0949 22.9621 22.0949 21.3577C22.0949 19.7532 23.3955 18.4526 25 18.4526C26.6044 18.4526 27.9051 19.7532 27.9051 21.3577Z" fill="white"/>
<path fill-rule="evenodd" clip-rule="evenodd" d="M25 26.4416C22.8683 26.4416 21.3313 26.8838 20.2288 27.5468C19.1219 28.2124 18.5002 29.0725 18.1568 29.8247C17.8674 30.4587 17.9991 31.1048 18.3836 31.5651C18.7502 32.0039 19.3201 32.2518 19.9161 32.2518H30.0839C30.6799 32.2518 31.2498 32.004 31.6163 31.5652C32.0009 31.1048 32.1326 30.4587 31.8432 29.8247C31.4999 29.0725 30.8782 28.2125 29.7712 27.5468C28.6687 26.8838 27.1318 26.4416 25 26.4416ZM19.4782 30.4278C19.7165 29.9057 20.1543 29.2865 20.9774 28.7916C21.8048 28.294 23.0683 27.8941 25 27.8941C26.9318 27.8941 28.1952 28.294 29.0227 28.7916C29.8457 29.2865 30.2835 29.9057 30.5218 30.4278C30.5499 30.4895 30.5487 30.5266 30.5459 30.5455C30.5426 30.5671 30.532 30.5975 30.5016 30.634C30.4361 30.7123 30.2901 30.7992 30.0839 30.7992H19.9161C19.7099 30.7992 19.5639 30.7123 19.4984 30.634C19.468 30.5975 19.4573 30.5671 19.4541 30.5455C19.4513 30.5266 19.4501 30.4895 19.4782 30.4278Z" fill="white"/>
<defs>
<linearGradient id="paint0_linear_839_8685" x1="25" y1="0" x2="25" y2="50" gradientUnits="userSpaceOnUse">
<stop stop-color="#F62E74"/>
<stop offset="1" stop-color="#D62F68"/>
</linearGradient>
</defs>
</svg>
