<svg width="50" height="50" viewBox="0 0 50 50" fill="none" xmlns="http://www.w3.org/2000/svg">
<path d="M24 0.577351C24.6188 0.220085 25.3812 0.220085 26 0.57735L45.6506 11.9226C46.2694 12.2799 46.6506 12.9402 46.6506 13.6547V36.3453C46.6506 37.0598 46.2694 37.7201 45.6506 38.0774L26 49.4226C25.3812 49.7799 24.6188 49.7799 24 49.4226L4.34937 38.0774C3.73056 37.7201 3.34937 37.0598 3.34937 36.3453V13.6547C3.34937 12.9402 3.73056 12.2799 4.34937 11.9226L24 0.577351Z" fill="url(#paint0_linear_710_8505)"/>
<path d="M24.25 4.01036C24.7141 3.74241 25.2859 3.74241 25.75 4.01036L42.8026 13.8557C43.2667 14.1236 43.5526 14.6188 43.5526 15.1547V34.8453C43.5526 35.3812 43.2667 35.8764 42.8026 36.1443L25.75 45.9896C25.2859 46.2576 24.7141 46.2576 24.25 45.9896L7.19744 36.1443C6.73334 35.8764 6.44744 35.3812 6.44744 34.8453V15.1547C6.44744 14.6188 6.73334 14.1236 7.19744 13.8557L24.25 4.01036Z" stroke="white"/>
<path fill-rule="evenodd" clip-rule="evenodd" d="M25 17C23.2156 17 21.5746 17.2001 20.3579 17.5381C19.7544 17.7057 19.2153 17.9181 18.8108 18.1837C18.4348 18.4307 18 18.8438 18 19.45L18.0001 19.4691C18.0002 21.1449 18.0001 26.4055 18 28.7825L18 29.95C18 30.5562 18.4348 30.9694 18.8108 31.2163C19.2153 31.482 19.7544 31.6943 20.3579 31.8619C21.5746 32.1999 23.2156 32.4 25 32.4C26.7844 32.4 28.4254 32.1999 29.6421 31.8619C30.2456 31.6943 30.7847 31.482 31.1892 31.2163C31.5652 30.9694 32 30.5562 32 29.95L32 19.45C32 18.8438 31.5652 18.4307 31.1892 18.1837C30.7847 17.9181 30.2456 17.7057 29.6421 17.5381C28.4254 17.2001 26.7844 17 25 17ZM19.5793 19.3539C19.5208 19.3924 19.4795 19.4245 19.4506 19.45C19.4795 19.4755 19.5208 19.5076 19.5793 19.5461C19.8124 19.6992 20.196 19.8639 20.7326 20.013C21.796 20.3084 23.305 20.5 25 20.5C26.695 20.5 28.204 20.3084 29.2674 20.013C29.804 19.8639 30.1876 19.6992 30.4207 19.5461C30.4792 19.5076 30.5205 19.4755 30.5493 19.45C30.5205 19.4245 30.4792 19.3924 30.4207 19.3539C30.1876 19.2008 29.804 19.0361 29.2674 18.887C28.204 18.5916 26.695 18.4 25 18.4C23.305 18.4 21.796 18.5916 20.7326 18.887C20.196 19.0361 19.8124 19.2008 19.5793 19.3539ZM30.6122 19.3811C30.6122 19.3811 30.6117 19.3819 30.6108 19.3837L30.6122 19.3811C30.6123 19.3809 30.6123 19.3811 30.6122 19.3811ZM30.6 21.0293C30.3104 21.1558 29.9868 21.2662 29.6421 21.3619C28.4254 21.6999 26.7844 21.9 25 21.9C23.2156 21.9 21.5746 21.6999 20.3579 21.3619C20.0133 21.2662 19.6897 21.1559 19.4002 21.0294L19.4001 23.1798C20.8322 23.7153 22.8083 24 24.8688 24C26.9358 24 29.0063 23.7134 30.6 23.1636V21.0293ZM19.4001 26.6798L19.4001 24.6602C20.9764 25.1617 22.9275 25.4 24.8688 25.4C26.8538 25.4 28.8971 25.1508 30.6 24.6347V26.6636C29.0063 27.2134 26.9358 27.5 24.8688 27.5C22.8083 27.5 20.8322 27.2153 19.4001 26.6798ZM19.4 28.1602L19.4 29.8988C19.42 29.9235 19.4692 29.9738 19.5793 30.0461C19.8124 30.1992 20.196 30.3639 20.7326 30.513C21.796 30.8084 23.305 31 25 31C26.695 31 28.204 30.8084 29.2674 30.513C29.804 30.3639 30.1876 30.1992 30.4207 30.0461C30.5308 29.9738 30.58 29.9236 30.6 29.8988V28.1347C28.8971 28.6508 26.8538 28.9 24.8688 28.9C22.9275 28.9 20.9764 28.6617 19.4 28.1602Z" fill="white"/>
<defs>
<linearGradient id="paint0_linear_710_8505" x1="25" y1="0" x2="25" y2="50" gradientUnits="userSpaceOnUse">
<stop stop-color="#8B83FB"/>
<stop offset="1" stop-color="#625FFB"/>
</linearGradient>
</defs>
</svg>
