<svg width="50" height="50" viewBox="0 0 50 50" fill="none" xmlns="http://www.w3.org/2000/svg">
<path d="M24 0.577351C24.6188 0.220085 25.3812 0.220085 26 0.57735L45.6506 11.9226C46.2694 12.2799 46.6506 12.9402 46.6506 13.6547V36.3453C46.6506 37.0598 46.2694 37.7201 45.6506 38.0774L26 49.4226C25.3812 49.7799 24.6188 49.7799 24 49.4226L4.34937 38.0774C3.73056 37.7201 3.34937 37.0598 3.34937 36.3453V13.6547C3.34937 12.9402 3.73056 12.2799 4.34937 11.9226L24 0.577351Z" fill="url(#paint0_linear_839_8683)"/>
<path d="M24.25 4.01036C24.7141 3.74241 25.2859 3.74241 25.75 4.01036L42.8026 13.8557C43.2667 14.1236 43.5526 14.6188 43.5526 15.1547V34.8453C43.5526 35.3812 43.2667 35.8764 42.8026 36.1443L25.75 45.9896C25.2859 46.2576 24.7141 46.2576 24.25 45.9896L7.19744 36.1443C6.73334 35.8764 6.44744 35.3812 6.44744 34.8453V15.1547C6.44744 14.6188 6.73334 14.1236 7.19744 13.8557L24.25 4.01036Z" stroke="white"/>
<path fill-rule="evenodd" clip-rule="evenodd" d="M28.3333 25C28.3333 26.8409 26.8409 28.3333 25 28.3333C23.1591 28.3333 21.6667 26.8409 21.6667 25C21.6667 23.1591 23.1591 21.6667 25 21.6667C26.8409 21.6667 28.3333 23.1591 28.3333 25ZM27 25C27 26.1046 26.1046 27 25 27C23.8954 27 23 26.1046 23 25C23 23.8954 23.8954 23 25 23C26.1046 23 27 23.8954 27 25Z" fill="white"/>
<path fill-rule="evenodd" clip-rule="evenodd" d="M33 25C33 26.6667 29.4183 31 25 31C20.5817 31 17 27 17 25C17 23 20.5817 19 25 19C29.4183 19 33 23.3333 33 25ZM31.6664 24.9993L31.6665 25L31.6664 25.0007C31.6648 25.0139 31.6548 25.0966 31.5925 25.2591C31.5239 25.438 31.4105 25.6651 31.2442 25.9284C30.9112 26.4553 30.4086 27.0596 29.7692 27.6301C28.474 28.7857 26.7766 29.6667 25 29.6667C23.1914 29.6667 21.489 28.8413 20.2145 27.7408C19.5825 27.1951 19.0894 26.6096 18.7635 26.0812C18.4192 25.5232 18.3333 25.1477 18.3333 25C18.3333 24.8523 18.4192 24.4768 18.7635 23.9188C19.0894 23.3904 19.5825 22.8049 20.2145 22.2592C21.489 21.1587 23.1914 20.3333 25 20.3333C26.7766 20.3333 28.474 21.2143 29.7692 22.3699C30.4086 22.9404 30.9112 23.5447 31.2442 24.0716C31.4105 24.3349 31.5239 24.562 31.5925 24.7409C31.6548 24.9034 31.6648 24.9861 31.6664 24.9993Z" fill="white"/>
<defs>
<linearGradient id="paint0_linear_839_8683" x1="25" y1="0" x2="25" y2="50" gradientUnits="userSpaceOnUse">
<stop stop-color="#44B8FA"/>
<stop offset="1" stop-color="#4490FA"/>
</linearGradient>
</defs>
</svg>
