<svg width="50" height="50" viewBox="0 0 50 50" fill="none" xmlns="http://www.w3.org/2000/svg">
<path d="M24 0.577351C24.6188 0.220085 25.3812 0.220085 26 0.57735L45.6506 11.9226C46.2694 12.2799 46.6506 12.9402 46.6506 13.6547V36.3453C46.6506 37.0598 46.2694 37.7201 45.6506 38.0774L26 49.4226C25.3812 49.7799 24.6188 49.7799 24 49.4226L4.34937 38.0774C3.73056 37.7201 3.34937 37.0598 3.34937 36.3453V13.6547C3.34937 12.9402 3.73056 12.2799 4.34937 11.9226L24 0.577351Z" fill="#0F2546"/>
<path d="M24.25 4.01036C24.7141 3.74241 25.2859 3.74241 25.75 4.01036L42.8026 13.8557C43.2667 14.1236 43.5526 14.6188 43.5526 15.1547V34.8453C43.5526 35.3812 43.2667 35.8764 42.8026 36.1443L25.75 45.9896C25.2859 46.2576 24.7141 46.2576 24.25 45.9896L7.19744 36.1443C6.73334 35.8764 6.44744 35.3812 6.44744 34.8453V15.1547C6.44744 14.6188 6.73334 14.1236 7.19744 13.8557L24.25 4.01036Z" stroke="#BBF613"/>
<path d="M18 36.6857V14.3664H19.8485V18.4578L19.5455 17.8776C20.1515 16.697 21.0202 15.7607 22.1515 15.0686C23.303 14.3562 24.6061 14 26.0606 14C27.5758 14 28.9293 14.3664 30.1212 15.0992C31.3333 15.832 32.2828 16.8395 32.9697 18.1219C33.6566 19.4043 34 20.8495 34 22.4575C34 24.0656 33.6566 25.5108 32.9697 26.7932C32.2828 28.0755 31.3333 29.0933 30.1212 29.8464C28.9293 30.5792 27.5758 30.9456 26.0606 30.9456C24.6061 30.9456 23.2929 30.5894 22.1212 29.877C20.9697 29.1442 20.1111 28.157 19.5455 26.9153L19.8485 26.4878V36.6857H18ZM26 29.1136C27.1717 29.1136 28.2121 28.8287 29.1212 28.2587C30.0303 27.6684 30.7475 26.8746 31.2727 25.8772C31.798 24.8594 32.0606 23.7195 32.0606 22.4575C32.0606 21.1955 31.798 20.0658 31.2727 19.0684C30.7475 18.071 30.0303 17.2873 29.1212 16.7174C28.2121 16.1271 27.1717 15.832 26 15.832C24.8687 15.832 23.8384 16.1271 22.9091 16.7174C21.9798 17.2873 21.2424 18.071 20.697 19.0684C20.1515 20.0658 19.8788 21.2057 19.8788 22.4881C19.8788 23.7297 20.1515 24.8594 20.697 25.8772C21.2424 26.8746 21.9798 27.6684 22.9091 28.2587C23.8384 28.8287 24.8687 29.1136 26 29.1136Z" fill="#BBF613"/>
</svg>
